<svg id="Layer_1" data-name="Layer 1" xmlns="http://www.w3.org/2000/svg" viewBox="0 0 150 150"><defs><style>.cls-1{fill:#9d9d9c;}.cls-2{fill:#c6c6c6;}</style></defs><path class="cls-1" d="M30.1,7.22h89.8a24.6,24.6,0,0,1,24.62,24.62v86.32a24.6,24.6,0,0,1-24.62,24.62H30.1A24.6,24.6,0,0,1,5.48,118.16V31.84A24.6,24.6,0,0,1,30.1,7.22Z"/><path class="cls-2" d="M72.68,88.32H51.13l-4.4,13.62a1,1,0,0,1-1.1.81H34.74c-.64,0-.81-.35-.64-1L52.75,48c.18-.57.35-1.21.58-1.91a19.48,19.48,0,0,0,.35-3.76.58.58,0,0,1,.47-.64h15c.46,0,.69.17.75.46l21.15,59.67c.17.64,0,.93-.58.93H78.36a.87.87,0,0,1-.93-.64ZM54.49,76.56H69.21c-.35-1.21-.81-2.66-1.34-4.17s-1-3.24-1.56-5-1.1-3.53-1.68-5.33-1.1-3.47-1.56-5.15-.87-3.13-1.28-4.52h-.11a73.53,73.53,0,0,1-2,7.47C58.84,62.66,58,65.56,57,68.45S55.36,74.13,54.49,76.56ZM104,51.83a7.16,7.16,0,0,1-5.15-2,7.53,7.53,0,0,1-2-5.33,6.79,6.79,0,0,1,2.08-5.15,7.42,7.42,0,0,1,5.16-2,6.9,6.9,0,0,1,5.27,2,7.27,7.27,0,0,1,1.91,5.15,7.32,7.32,0,0,1-2,5.33,6.86,6.86,0,0,1-5.28,2Zm-6.48,50.28V57.51c0-.58.23-.82.75-.82H109.7c.52,0,.75.29.75.82v44.6c0,.64-.23.93-.75.93H98.35A.81.81,0,0,1,97.48,102.11Z"/></svg>