<svg id="Layer_1" data-name="Layer 1" xmlns="http://www.w3.org/2000/svg" viewBox="0 0 150 150"><defs><style>.cls-1{fill:#c6c6c6;}.cls-2{fill:#9d9d9c;}</style></defs><path class="cls-1" d="M75,92.8c0,6.41.27,12.83-.09,19.24A17.55,17.55,0,0,1,61,128c-.41.08-.9,0-1.22.38h-5c-.29-.38-.75-.3-1.13-.38A17.77,17.77,0,0,1,54,93.11l1.33-.22c.68-.46,1.52-.08,2.23-.42a47.65,47.65,0,0,1,4.78-.08q5.52,0,11,0C74,92.4,74.59,92.27,75,92.8Z"/><path class="cls-2" d="M55.17,57.3c-1.06-.27-2.12-.51-3.17-.81-8-2.31-13.18-9.84-12.67-18.55.45-7.76,6.82-14.69,14.71-16a11.91,11.91,0,0,1,2.06-.22q9.42,0,18.84,0c.53.27.52.78.54,1.26,0,.87,0,1.73,0,2.6V54.73c0,.38,0,.76,0,1.14,0,1.3-.24,1.52-1.54,1.52-5.48,0-11,0-16.44,0a6.27,6.27,0,0,0-1.56.09A.84.84,0,0,1,55.17,57.3Z"/><path class="cls-1" d="M55.17,57.3l.59,0c1.21-.13,2.42-.05,3.63-.06H74a3.89,3.89,0,0,1,1.13.06A2.34,2.34,0,0,1,75.48,59q0,6.74,0,13.48c0,1.27,0,2.54,0,3.8a1.49,1.49,0,0,1-.32,1.16q0,7.14-.05,14.27c0,.38,0,.76-.06,1.13H57.33a6.84,6.84,0,0,1-2-.05,17.7,17.7,0,0,1-11-5.55C39.68,82,38.26,76,40.48,69.36S47.35,59,54.05,57.53Z"/><path class="cls-1" d="M75.09,57.31l-19.33,0c.28-.3.65-.18,1-.18,5.76,0,11.52,0,17.28,0,.84,0,1.14-.19,1.13-1.08q0-16.6,0-33.21a1.85,1.85,0,0,0-.2-1.11c6.24,0,12.49-.15,18.73,0,8.3.24,15.43,7,16.51,15.33A17.75,17.75,0,0,1,94.53,57.14c-.53.39-1.2.15-1.77.4a14.16,14.16,0,0,1-2.52.07q-6.72.06-13.46,0A2.49,2.49,0,0,1,75.09,57.31Z"/><path class="cls-1" d="M90.46,57.32l2.44-.06a4.7,4.7,0,0,1,1.63,0c7,1,12.13,4.53,14.75,11.11,2.68,6.74,1.58,13.1-3.28,18.49A16.73,16.73,0,0,1,87.85,92c-6.94-2-11.11-6.89-12.52-14,0-.2-.12-.39-.18-.59V72.62a14.71,14.71,0,0,1,3.5-8.72,16.81,16.81,0,0,1,10.48-6.45A4.59,4.59,0,0,0,90.46,57.32Z"/></svg>