<svg id="Layer_1" data-name="Layer 1" xmlns="http://www.w3.org/2000/svg" viewBox="0 0 835.39 359.68"><defs><style>.cls-1,.cls-3{fill:#c6c6c6;}.cls-2{fill:#9d9d9c;}.cls-3,.cls-4{fill-rule:evenodd;}.cls-4{fill:#dadada;}.cls-5{fill:#ededed;}</style></defs><path class="cls-1" d="M-195.86-127.41c0,6.41.27,12.83-.09,19.24a17.55,17.55,0,0,1-14,15.92c-.41.08-.9,0-1.22.38h-5c-.29-.37-.75-.3-1.13-.38a17.76,17.76,0,0,1-14.08-17.81,17.74,17.74,0,0,1,14.49-17l1.33-.22c.68-.46,1.52-.08,2.23-.42a47.65,47.65,0,0,1,4.78-.08q5.52,0,11,0C-196.94-127.81-196.31-127.94-195.86-127.41Z" transform="translate(231.61 216.33)"/><path class="cls-2" d="M-215.73-162.91c-1.06-.26-2.12-.51-3.17-.81-8-2.31-13.18-9.83-12.67-18.54.45-7.77,6.82-14.7,14.71-16a13,13,0,0,1,2.06-.22q9.42,0,18.84,0c.53.27.52.78.54,1.26,0,.87,0,1.73,0,2.6v29.15c0,.38,0,.76,0,1.14,0,1.3-.24,1.52-1.54,1.52-5.48,0-11,0-16.44,0a6.27,6.27,0,0,0-1.56.09A.84.84,0,0,1-215.73-162.91Z" transform="translate(231.61 216.33)"/><path class="cls-1" d="M-215.73-162.91l.59,0c1.21-.13,2.42-.05,3.63-.06h14.64a3.89,3.89,0,0,1,1.13.06,2.34,2.34,0,0,1,.32,1.69q0,6.74,0,13.48c.05,1.27,0,2.54,0,3.8a1.48,1.48,0,0,1-.32,1.16q0,7.14-.05,14.27c0,.38,0,.76-.06,1.13h-17.71a7.22,7.22,0,0,1-2-.06,17.7,17.7,0,0,1-11-5.55c-4.69-5.17-6.11-11.22-3.89-17.83s6.87-10.38,13.57-11.83Z" transform="translate(231.61 216.33)"/><path class="cls-1" d="M-195.81-162.9l-19.33,0c.28-.3.65-.18,1-.18,5.76,0,11.52,0,17.28,0,.84,0,1.14-.19,1.13-1.08q0-16.61,0-33.21a1.85,1.85,0,0,0-.2-1.11c6.24,0,12.49-.15,18.73,0,8.3.23,15.43,7,16.51,15.32a17.75,17.75,0,0,1-15.65,20.07c-.53.39-1.2.15-1.77.4a14.08,14.08,0,0,1-2.51.08q-6.73,0-13.47,0A2.49,2.49,0,0,1-195.81-162.9Z" transform="translate(231.61 216.33)"/><path class="cls-1" d="M-180.44-162.89l2.44-.06a4.7,4.7,0,0,1,1.63,0c7,1,12.13,4.53,14.75,11.11,2.68,6.74,1.58,13.11-3.28,18.49A16.73,16.73,0,0,1-183-128.19c-6.94-2-11.11-6.89-12.52-14,0-.2-.12-.39-.18-.59v-4.77a14.72,14.72,0,0,1,3.5-8.73,16.81,16.81,0,0,1,10.48-6.45A4.59,4.59,0,0,0-180.44-162.89Z" transform="translate(231.61 216.33)"/><path class="cls-2" d="M104.43-213h89.8a24.6,24.6,0,0,1,24.62,24.62V-102a24.6,24.6,0,0,1-24.62,24.62h-89.8A24.6,24.6,0,0,1,79.81-102v-86.32A24.6,24.6,0,0,1,104.43-213Z" transform="translate(231.61 216.33)"/><path class="cls-1" d="M147-131.89H125.46l-4.4,13.62a1,1,0,0,1-1.1.81H109.07c-.64,0-.81-.35-.64-1l18.66-53.7c.17-.58.34-1.22.57-1.92a19.48,19.48,0,0,0,.35-3.76.58.58,0,0,1,.47-.64h15c.46,0,.69.17.75.46l21.15,59.67c.17.64,0,.93-.58.93H152.69a.87.87,0,0,1-.93-.64Zm-18.19-11.76h14.72c-.35-1.21-.81-2.66-1.34-4.17s-1-3.24-1.56-5-1.1-3.53-1.68-5.33-1.1-3.47-1.56-5.15-.87-3.13-1.28-4.52H136a71,71,0,0,1-2,7.47c-.87,2.78-1.74,5.68-2.67,8.57S129.69-146.08,128.82-143.65Zm49.48-24.73a7.17,7.17,0,0,1-5.16-2,7.53,7.53,0,0,1-2-5.33,6.76,6.76,0,0,1,2.09-5.15,7.38,7.38,0,0,1,5.15-2,6.9,6.9,0,0,1,5.27,2,7.27,7.27,0,0,1,1.91,5.15,7.32,7.32,0,0,1-2,5.33,6.86,6.86,0,0,1-5.27,2Zm-6.49,50.28v-44.6c0-.58.23-.82.75-.82H184c.52,0,.75.29.75.82v44.6c0,.64-.23.93-.75.93H172.68A.81.81,0,0,1,171.81-118.1Z" transform="translate(231.61 216.33)"/><g id="Layer_2" data-name="Layer 2"><g id="Surfaces"><g id="Photo_Surface" data-name="Photo Surface"><g id="Outline_no_shadow" data-name="Outline no shadow"><path class="cls-2" d="M295.3-213h89.79a24.6,24.6,0,0,1,24.62,24.62V-102a24.6,24.6,0,0,1-24.62,24.62H295.3A24.6,24.6,0,0,1,270.68-102v-86.32A24.6,24.6,0,0,1,295.3-213Z" transform="translate(231.61 216.33)"/></g></g></g><g id="Outlined_Mnemonics_Logos" data-name="Outlined Mnemonics Logos"><g id="Ps"><path class="cls-1" d="M302-117.92v-59.61c0-.41.18-.64.58-.64,1,0,1.92,0,3.25-.06s2.84-.06,4.4-.12,3.24-.05,5-.11,3.53-.06,5.27-.06a34,34,0,0,1,11.94,1.8A20.57,20.57,0,0,1,340.2-172a18.5,18.5,0,0,1,4.23,6.6,22.11,22.11,0,0,1,1.33,7.53q0,7.47-3.48,12.34a19.85,19.85,0,0,1-9.32,7.07,37.54,37.54,0,0,1-13,2c-1.39,0-2.31,0-2.89-.06s-1.39-.06-2.49-.06V-118a.74.74,0,0,1-.64.81H302.66C302.2-117.17,302-117.4,302-117.92ZM314.59-167v19.46c.81.06,1.57.12,2.26.12h3.07a21.76,21.76,0,0,0,6.66-1,10.11,10.11,0,0,0,4.76-3.07,9,9,0,0,0,1.79-6,9.51,9.51,0,0,0-1.33-5.16,8.48,8.48,0,0,0-4.06-3.3,16.92,16.92,0,0,0-6.83-1.16c-1.51,0-2.84,0-3.94.06a12.88,12.88,0,0,0-2.38.06Z" transform="translate(231.61 216.33)"/><path class="cls-1" d="M381.91-151.06a20.56,20.56,0,0,0-5.56-2,30.84,30.84,0,0,0-6.49-.75,11.6,11.6,0,0,0-3.48.4,3,3,0,0,0-1.79,1.16,3.05,3.05,0,0,0-.47,1.56,2.61,2.61,0,0,0,.58,1.51,6.6,6.6,0,0,0,2,1.57c1.33.69,2.73,1.33,4.12,1.91a41.89,41.89,0,0,1,8.92,4.23,13.39,13.39,0,0,1,4.57,4.8,12.61,12.61,0,0,1,1.34,6,13.61,13.61,0,0,1-2.26,7.71,14.62,14.62,0,0,1-6.49,5.15A26.52,26.52,0,0,1,366.38-116a40.08,40.08,0,0,1-7.88-.75,23.4,23.4,0,0,1-5.9-1.85,1.13,1.13,0,0,1-.64-1.1v-10.08a.62.62,0,0,1,.23-.52.44.44,0,0,1,.52,0,24.69,24.69,0,0,0,7.18,2.84,27,27,0,0,0,6.84.87,11.08,11.08,0,0,0,4.81-.81,2.67,2.67,0,0,0,1.56-2.43,3.06,3.06,0,0,0-1.39-2.32,24.64,24.64,0,0,0-5.67-2.72,36,36,0,0,1-8.23-4.17,15,15,0,0,1-4.4-4.93,12.48,12.48,0,0,1-1.34-5.91,13.69,13.69,0,0,1,2-7,14.37,14.37,0,0,1,6.09-5.33,22.46,22.46,0,0,1,10.25-2,49.55,49.55,0,0,1,7.18.52,20.29,20.29,0,0,1,5,1.33,1,1,0,0,1,.57.52,2.85,2.85,0,0,1,.12.7v9.44a.73.73,0,0,1-.29.58A1.49,1.49,0,0,1,381.91-151.06Z" transform="translate(231.61 216.33)"/></g></g></g><path class="cls-3" d="M-40.19-77A68.17,68.17,0,0,0,28-145.21a68.17,68.17,0,0,0-68.17-68.17,68.17,68.17,0,0,0-68.17,68.17A68.17,68.17,0,0,0-40.19-77Z" transform="translate(231.61 216.33)"/><path class="cls-4" d="M-74.27-124.11h34.08v32.46Z" transform="translate(231.61 216.33)"/><path class="cls-2" d="M-40.19-156.57H-74.27v32.46H-6.11Z" transform="translate(231.61 216.33)"/><path class="cls-5" d="M-74.27-189l34.08,32.46H-6.11V-189Z" transform="translate(231.61 216.33)"/><path class="cls-2" d="M461.55-164.85c0-18,0-27,3.51-33.91a32.11,32.11,0,0,1,14.06-14.06c6.88-3.51,15.89-3.51,33.91-3.51h39.28c18,0,27,0,33.91,3.51a32.22,32.22,0,0,1,14.06,14.06c3.5,6.88,3.5,15.89,3.5,33.91v39.28c0,18,0,27-3.5,33.91A32.22,32.22,0,0,1,586.22-77.6c-6.88,3.51-15.89,3.51-33.91,3.51H513c-18,0-27,0-33.91-3.51a32.11,32.11,0,0,1-14.06-14.06c-3.51-6.88-3.51-15.89-3.51-33.91Z" transform="translate(231.61 216.33)"/><path class="cls-1" d="M536-174.5l-17.75,30,19,31.91c.4.72,0,.88-.57.88H523.07c-1,0-1.62,0-2-.69q-1.92-3.81-3.82-7.58t-4-7.69c-1.44-2.6-2.85-5.25-4.25-7.92-1.27,2.61-2.69,5.22-4.06,7.83s-2.72,5.2-4.05,7.78-2.7,5.14-4.1,7.68c-.26.59-.7.65-1.34.65H482.33c-.52,0-.58-.39-.29-.85l18.42-31L482.52-174.6a.52.52,0,0,1,.48-.88h13.45a1.54,1.54,0,0,1,1.43.69q1.72,3.91,3.82,7.82t4.24,7.74c1.43,2.54,2.85,5.12,4.06,7.73q1.9-4,3.86-7.83c1.31-2.55,2.64-5.11,4-7.68s2.69-5.14,4-7.69a1,1,0,0,1,1.14-.78h12.5C536-175.48,536.15-174.83,536-174.5Z" transform="translate(231.61 216.33)"/><path class="cls-1" d="M563.33-110.4c-8.41.13-17.22-3.33-21.65-11q-3.25-5.53-3.25-13.85a26.05,26.05,0,0,1,3.25-12.82c5.57-10,16.8-13.7,27.47-12.72v-19.28c0-.45.2-.68.58-.68h12a.51.51,0,0,1,.57.58v57.84c0,2.39.24,4.76.38,7.14a1,1,0,0,1-.57,1A48.45,48.45,0,0,1,563.33-110.4Zm5.82-12.14v-26.71A13.62,13.62,0,0,0,552-135.84C551.77-126.34,560-119.78,569.15-122.54Z" transform="translate(231.61 216.33)"/><path class="cls-1" d="M10.74,12.49H139.26v125H10.74Z" transform="translate(231.61 216.33)"/><path class="cls-2" d="M10.74,12.49H139.26v125H10.74ZM4.89,143.35H145.11V6.65H4.89ZM93.58,63.43a8.33,8.33,0,0,0-3.45-.58c-7.54,0-12.79,5.78-12.79,15.42,0,11,5.37,15.42,12.09,15.42a10.44,10.44,0,0,0,4.15-.7Zm-3.1-9.52a26.26,26.26,0,0,1,3.1.12V38.49a.55.55,0,0,1,.58-.59h9.47c.46,0,.58.18.58.47V93a44.33,44.33,0,0,0,.29,5.9c0,.41-.11.47-.52.71A35.81,35.81,0,0,1,88.67,103c-12.91,0-22.14-8-22.14-24.3-.06-14,9.17-24.83,24-24.83Zm-34.29,47.5c0,.58-.12.76-.76.76h-9c-.58,0-.76-.3-.76-.76V38.66c0-.58.29-.76.76-.76h9.06c.46,0,.7.18.7.7Z" transform="translate(231.61 216.33)"/></svg>