<svg id="Layer_1" data-name="Layer 1" xmlns="http://www.w3.org/2000/svg" viewBox="0 0 150 150"><defs><style>.cls-1{fill:#9d9d9c;}.cls-2{fill:#c6c6c6;}</style></defs><g id="Layer_2" data-name="Layer 2"><g id="Surfaces"><g id="Photo_Surface" data-name="Photo Surface"><g id="Outline_no_shadow" data-name="Outline no shadow"><path class="cls-1" d="M30.1,7.22h89.8a24.6,24.6,0,0,1,24.62,24.62v86.32a24.6,24.6,0,0,1-24.62,24.62H30.1A24.6,24.6,0,0,1,5.48,118.16V31.84A24.6,24.6,0,0,1,30.1,7.22Z"/></g></g></g><g id="Outlined_Mnemonics_Logos" data-name="Outlined Mnemonics Logos"><g id="Ps"><path class="cls-2" d="M36.77,102.28V42.68c0-.41.17-.64.58-.64,1,0,1.91,0,3.24-.06s2.84-.06,4.4-.12,3.25,0,5-.11,3.54-.06,5.27-.06a34,34,0,0,1,11.94,1.8A20.57,20.57,0,0,1,75,48.24a18.5,18.5,0,0,1,4.23,6.6,22.11,22.11,0,0,1,1.33,7.53q0,7.47-3.47,12.34a19.93,19.93,0,0,1-9.33,7.07,37.54,37.54,0,0,1-13,2c-1.39,0-2.31,0-2.89-.06s-1.39-.06-2.49-.06v18.6a.72.72,0,0,1-.64.81H37.46C37,103,36.77,102.81,36.77,102.28ZM49.4,53.22V72.68c.81.06,1.56.12,2.25.12h3.07a21.87,21.87,0,0,0,6.67-1,10.13,10.13,0,0,0,4.75-3.07,9,9,0,0,0,1.79-6,9.51,9.51,0,0,0-1.33-5.16,8.41,8.41,0,0,0-4-3.3,17,17,0,0,0-6.84-1.16c-1.51,0-2.84,0-3.94.06a12.72,12.72,0,0,0-2.37.06Z"/><path class="cls-2" d="M116.71,69.15a20.23,20.23,0,0,0-5.56-2,30.84,30.84,0,0,0-6.49-.75,11.6,11.6,0,0,0-3.48.4A3,3,0,0,0,99.39,68a3.05,3.05,0,0,0-.47,1.56,2.61,2.61,0,0,0,.58,1.51,6.54,6.54,0,0,0,2,1.56c1.34.7,2.73,1.34,4.12,1.92a41.67,41.67,0,0,1,8.92,4.23,13.39,13.39,0,0,1,4.57,4.8,12.59,12.59,0,0,1,1.34,6,13.61,13.61,0,0,1-2.26,7.71,14.51,14.51,0,0,1-6.49,5.15,26.48,26.48,0,0,1-10.49,1.85,39.91,39.91,0,0,1-7.87-.75,23.34,23.34,0,0,1-5.91-1.85,1.13,1.13,0,0,1-.64-1.1V90.47A.62.62,0,0,1,87,90a.44.44,0,0,1,.52,0,24.64,24.64,0,0,0,7.19,2.84,26.87,26.87,0,0,0,6.83.87,11.08,11.08,0,0,0,4.81-.81,2.69,2.69,0,0,0,1.56-2.43,3.06,3.06,0,0,0-1.39-2.32,24.42,24.42,0,0,0-5.67-2.72,36,36,0,0,1-8.23-4.17,15,15,0,0,1-4.4-4.93,12.36,12.36,0,0,1-1.33-5.91,13.59,13.59,0,0,1,2-7,14.29,14.29,0,0,1,6.08-5.33,22.46,22.46,0,0,1,10.25-2,49.45,49.45,0,0,1,7.18.52,20.29,20.29,0,0,1,5,1.33,1,1,0,0,1,.58.52,3.4,3.4,0,0,1,.11.7v9.44a.71.71,0,0,1-.29.58A1.61,1.61,0,0,1,116.71,69.15Z"/></g></g></g></svg>